<svg xmlns="http://www.w3.org/2000/svg" viewBox="0 0 3600 4420" width="3600" height="4420">
<circle cx="1800.0" cy="1830.0" r="1560.0" fill="#14161A"/>
<circle cx="1800.0" cy="1830.0" r="1495.0" fill="none" stroke="#4A5568" stroke-width="3.2" opacity="0.55"/>
<circle cx="1800.0" cy="1830.0" r="1486.0" fill="none" stroke="#4A5568" stroke-width="3.2" opacity="0.55"/>
<circle cx="1800.0" cy="1830.0" r="1477.0" fill="none" stroke="#4A5568" stroke-width="3.2" opacity="0.55"/>
<circle cx="1800.0" cy="1830.0" r="1468.0" fill="none" stroke="#4A5568" stroke-width="3.2" opacity="0.55"/>
<circle cx="1800.0" cy="1830.0" r="1459.0" fill="none" stroke="#4A5568" stroke-width="3.2" opacity="0.55"/>
<circle cx="1800.0" cy="1830.0" r="1450.0" fill="none" stroke="#4A5568" stroke-width="3.2" opacity="0.55"/>
<circle cx="1800.0" cy="1830.0" r="1441.0" fill="none" stroke="#4A5568" stroke-width="3.2" opacity="0.55"/>
<circle cx="1800.0" cy="1830.0" r="1432.0" fill="none" stroke="#4A5568" stroke-width="3.2" opacity="0.55"/>
<circle cx="1800.0" cy="1830.0" r="1423.0" fill="none" stroke="#4A5568" stroke-width="3.2" opacity="0.55"/>
<circle cx="1800.0" cy="1830.0" r="1414.0" fill="none" stroke="#4A5568" stroke-width="3.2" opacity="0.55"/>
<circle cx="1800.0" cy="1830.0" r="1405.0" fill="none" stroke="#4A5568" stroke-width="3.2" opacity="0.55"/>
<circle cx="1800.0" cy="1830.0" r="1396.0" fill="none" stroke="#4A5568" stroke-width="3.2" opacity="0.55"/>
<circle cx="1800.0" cy="1830.0" r="1387.0" fill="none" stroke="#4A5568" stroke-width="3.2" opacity="0.55"/>
<circle cx="1800.0" cy="1830.0" r="1378.0" fill="none" stroke="#4A5568" stroke-width="3.2" opacity="0.55"/>
<circle cx="1800.0" cy="1830.0" r="1369.0" fill="none" stroke="#4A5568" stroke-width="3.2" opacity="0.55"/>
<circle cx="1800.0" cy="1830.0" r="1360.0" fill="none" stroke="#4A5568" stroke-width="3.2" opacity="0.55"/>
<circle cx="1800.0" cy="1830.0" r="1351.0" fill="none" stroke="#4A5568" stroke-width="3.2" opacity="0.55"/>
<circle cx="1800.0" cy="1830.0" r="1342.0" fill="none" stroke="#4A5568" stroke-width="3.2" opacity="0.55"/>
<circle cx="1800.0" cy="1830.0" r="1333.0" fill="none" stroke="#4A5568" stroke-width="3.2" opacity="0.55"/>
<circle cx="1800.0" cy="1830.0" r="1321.0" fill="none" stroke="#4A5568" stroke-width="7" opacity="0.85"/>
<circle cx="1800.0" cy="1830.0" r="1305.0" fill="none" stroke="#4A5568" stroke-width="3.2" opacity="0.55"/>
<circle cx="1800.0" cy="1830.0" r="1296.0" fill="none" stroke="#4A5568" stroke-width="3.2" opacity="0.55"/>
<circle cx="1800.0" cy="1830.0" r="1287.0" fill="none" stroke="#4A5568" stroke-width="3.2" opacity="0.55"/>
<circle cx="1800.0" cy="1830.0" r="1278.0" fill="none" stroke="#4A5568" stroke-width="3.2" opacity="0.55"/>
<circle cx="1800.0" cy="1830.0" r="1269.0" fill="none" stroke="#4A5568" stroke-width="3.2" opacity="0.55"/>
<circle cx="1800.0" cy="1830.0" r="1260.0" fill="none" stroke="#4A5568" stroke-width="3.2" opacity="0.55"/>
<circle cx="1800.0" cy="1830.0" r="1251.0" fill="none" stroke="#4A5568" stroke-width="3.2" opacity="0.55"/>
<circle cx="1800.0" cy="1830.0" r="1242.0" fill="none" stroke="#4A5568" stroke-width="3.2" opacity="0.55"/>
<circle cx="1800.0" cy="1830.0" r="1233.0" fill="none" stroke="#4A5568" stroke-width="3.2" opacity="0.55"/>
<circle cx="1800.0" cy="1830.0" r="1224.0" fill="none" stroke="#4A5568" stroke-width="3.2" opacity="0.55"/>
<circle cx="1800.0" cy="1830.0" r="1215.0" fill="none" stroke="#4A5568" stroke-width="3.2" opacity="0.55"/>
<circle cx="1800.0" cy="1830.0" r="1206.0" fill="none" stroke="#4A5568" stroke-width="3.2" opacity="0.55"/>
<circle cx="1800.0" cy="1830.0" r="1197.0" fill="none" stroke="#4A5568" stroke-width="3.2" opacity="0.55"/>
<circle cx="1800.0" cy="1830.0" r="1188.0" fill="none" stroke="#4A5568" stroke-width="3.2" opacity="0.55"/>
<circle cx="1800.0" cy="1830.0" r="1179.0" fill="none" stroke="#4A5568" stroke-width="3.2" opacity="0.55"/>
<circle cx="1800.0" cy="1830.0" r="1170.0" fill="none" stroke="#4A5568" stroke-width="3.2" opacity="0.55"/>
<circle cx="1800.0" cy="1830.0" r="1161.0" fill="none" stroke="#4A5568" stroke-width="3.2" opacity="0.55"/>
<circle cx="1800.0" cy="1830.0" r="1152.0" fill="none" stroke="#4A5568" stroke-width="3.2" opacity="0.55"/>
<circle cx="1800.0" cy="1830.0" r="1141.0" fill="none" stroke="#4A5568" stroke-width="7" opacity="0.85"/>
<circle cx="1800.0" cy="1830.0" r="1125.0" fill="none" stroke="#4A5568" stroke-width="3.2" opacity="0.55"/>
<circle cx="1800.0" cy="1830.0" r="1116.0" fill="none" stroke="#4A5568" stroke-width="3.2" opacity="0.55"/>
<circle cx="1800.0" cy="1830.0" r="1107.0" fill="none" stroke="#4A5568" stroke-width="3.2" opacity="0.55"/>
<circle cx="1800.0" cy="1830.0" r="1098.0" fill="none" stroke="#4A5568" stroke-width="3.2" opacity="0.55"/>
<circle cx="1800.0" cy="1830.0" r="1089.0" fill="none" stroke="#4A5568" stroke-width="3.2" opacity="0.55"/>
<circle cx="1800.0" cy="1830.0" r="1080.0" fill="none" stroke="#4A5568" stroke-width="3.2" opacity="0.55"/>
<circle cx="1800.0" cy="1830.0" r="1071.0" fill="none" stroke="#4A5568" stroke-width="3.2" opacity="0.55"/>
<circle cx="1800.0" cy="1830.0" r="1062.0" fill="none" stroke="#4A5568" stroke-width="3.2" opacity="0.55"/>
<circle cx="1800.0" cy="1830.0" r="1053.0" fill="none" stroke="#4A5568" stroke-width="3.2" opacity="0.55"/>
<circle cx="1800.0" cy="1830.0" r="1044.0" fill="none" stroke="#4A5568" stroke-width="3.2" opacity="0.55"/>
<circle cx="1800.0" cy="1830.0" r="1035.0" fill="none" stroke="#4A5568" stroke-width="3.2" opacity="0.55"/>
<circle cx="1800.0" cy="1830.0" r="1026.0" fill="none" stroke="#4A5568" stroke-width="3.2" opacity="0.55"/>
<circle cx="1800.0" cy="1830.0" r="1017.0" fill="none" stroke="#4A5568" stroke-width="3.2" opacity="0.55"/>
<circle cx="1800.0" cy="1830.0" r="1008.0" fill="none" stroke="#4A5568" stroke-width="3.2" opacity="0.55"/>
<circle cx="1800.0" cy="1830.0" r="999.0" fill="none" stroke="#4A5568" stroke-width="3.2" opacity="0.55"/>
<circle cx="1800.0" cy="1830.0" r="990.0" fill="none" stroke="#4A5568" stroke-width="3.2" opacity="0.55"/>
<circle cx="1800.0" cy="1830.0" r="981.0" fill="none" stroke="#4A5568" stroke-width="3.2" opacity="0.55"/>
<circle cx="1800.0" cy="1830.0" r="966.0" fill="none" stroke="#4A5568" stroke-width="7" opacity="0.85"/>
<circle cx="1800.0" cy="1830.0" r="950.0" fill="none" stroke="#4A5568" stroke-width="3.2" opacity="0.55"/>
<circle cx="1800.0" cy="1830.0" r="941.0" fill="none" stroke="#4A5568" stroke-width="3.2" opacity="0.55"/>
<circle cx="1800.0" cy="1830.0" r="932.0" fill="none" stroke="#4A5568" stroke-width="3.2" opacity="0.55"/>
<circle cx="1800.0" cy="1830.0" r="923.0" fill="none" stroke="#4A5568" stroke-width="3.2" opacity="0.55"/>
<circle cx="1800.0" cy="1830.0" r="914.0" fill="none" stroke="#4A5568" stroke-width="3.2" opacity="0.55"/>
<circle cx="1800.0" cy="1830.0" r="905.0" fill="none" stroke="#4A5568" stroke-width="3.2" opacity="0.55"/>
<circle cx="1800.0" cy="1830.0" r="896.0" fill="none" stroke="#4A5568" stroke-width="3.2" opacity="0.55"/>
<circle cx="1800.0" cy="1830.0" r="887.0" fill="none" stroke="#4A5568" stroke-width="3.2" opacity="0.55"/>
<circle cx="1800.0" cy="1830.0" r="878.0" fill="none" stroke="#4A5568" stroke-width="3.2" opacity="0.55"/>
<circle cx="1800.0" cy="1830.0" r="869.0" fill="none" stroke="#4A5568" stroke-width="3.2" opacity="0.55"/>
<circle cx="1800.0" cy="1830.0" r="860.0" fill="none" stroke="#4A5568" stroke-width="3.2" opacity="0.55"/>
<circle cx="1800.0" cy="1830.0" r="851.0" fill="none" stroke="#4A5568" stroke-width="3.2" opacity="0.55"/>
<circle cx="1800.0" cy="1830.0" r="842.0" fill="none" stroke="#4A5568" stroke-width="3.2" opacity="0.55"/>
<circle cx="1800.0" cy="1830.0" r="833.0" fill="none" stroke="#4A5568" stroke-width="3.2" opacity="0.55"/>
<circle cx="1800.0" cy="1830.0" r="824.0" fill="none" stroke="#4A5568" stroke-width="3.2" opacity="0.55"/>
<circle cx="1800.0" cy="1830.0" r="815.0" fill="none" stroke="#4A5568" stroke-width="3.2" opacity="0.55"/>
<circle cx="1800.0" cy="1830.0" r="806.0" fill="none" stroke="#4A5568" stroke-width="3.2" opacity="0.55"/>
<circle cx="1800.0" cy="1830.0" r="791.0" fill="none" stroke="#4A5568" stroke-width="7" opacity="0.85"/>
<circle cx="1800.0" cy="1830.0" r="775.0" fill="none" stroke="#4A5568" stroke-width="3.2" opacity="0.55"/>
<circle cx="1800.0" cy="1830.0" r="766.0" fill="none" stroke="#4A5568" stroke-width="3.2" opacity="0.55"/>
<circle cx="1800.0" cy="1830.0" r="757.0" fill="none" stroke="#4A5568" stroke-width="3.2" opacity="0.55"/>
<circle cx="1800.0" cy="1830.0" r="748.0" fill="none" stroke="#4A5568" stroke-width="3.2" opacity="0.55"/>
<circle cx="1800.0" cy="1830.0" r="739.0" fill="none" stroke="#4A5568" stroke-width="3.2" opacity="0.55"/>
<circle cx="1800.0" cy="1830.0" r="730.0" fill="none" stroke="#4A5568" stroke-width="3.2" opacity="0.55"/>
<circle cx="1800.0" cy="1830.0" r="721.0" fill="none" stroke="#4A5568" stroke-width="3.2" opacity="0.55"/>
<circle cx="1800.0" cy="1830.0" r="712.0" fill="none" stroke="#4A5568" stroke-width="3.2" opacity="0.55"/>
<circle cx="1800.0" cy="1830.0" r="703.0" fill="none" stroke="#4A5568" stroke-width="3.2" opacity="0.55"/>
<circle cx="1800.0" cy="1830.0" r="694.0" fill="none" stroke="#4A5568" stroke-width="3.2" opacity="0.55"/>
<circle cx="1800.0" cy="1830.0" r="685.0" fill="none" stroke="#4A5568" stroke-width="3.2" opacity="0.55"/>
<circle cx="1800.0" cy="1830.0" r="676.0" fill="none" stroke="#4A5568" stroke-width="3.2" opacity="0.55"/>
<circle cx="1800.0" cy="1830.0" r="667.0" fill="none" stroke="#4A5568" stroke-width="3.2" opacity="0.55"/>
<circle cx="1800.0" cy="1830.0" r="656.0" fill="none" stroke="#4A5568" stroke-width="7" opacity="0.85"/>
<path d="M552,1144 A1451,1451 0 0 1 1488,457" fill="none" stroke="#F2E9DC" stroke-width="26" opacity="0.30" stroke-linecap="round"/>
<path d="M2268,3140 A1435,1435 0 0 1 3048,2485" fill="none" stroke="#F2E9DC" stroke-width="18" opacity="0.22" stroke-linecap="round"/>
<circle cx="1800.0" cy="1830.0" r="560.0" fill="#E4572E"/>
<circle cx="1800.0" cy="1830.0" r="560.0" fill="none" stroke="#14161A" stroke-width="14"/>
<circle cx="1800.0" cy="1830.0" r="448" fill="none" stroke="#14161A" stroke-width="6" opacity="0.45"/>
<path d="M1614.9 1626.6Q1604.8 1626.6 1598.1 1623.0Q1591.4 1619.5 1587.9 1612.0Q1584.5 1604.5 1584.1 1592.7L1604.3 1589.6Q1604.4 1596.5 1605.6 1600.7Q1606.7 1604.9 1608.7 1606.8Q1610.8 1608.6 1613.7 1608.6Q1617.4 1608.6 1618.5 1606.1Q1619.6 1603.6 1619.6 1600.8Q1619.6 1594.2 1616.5 1589.7Q1613.3 1585.1 1607.9 1580.5L1598.6 1572.5Q1592.6 1567.3 1588.4 1560.8Q1584.2 1554.2 1584.2 1544.6Q1584.2 1531.0 1592.3 1523.8Q1600.3 1516.6 1614.2 1516.6Q1622.8 1516.6 1628.0 1519.5Q1633.2 1522.4 1635.9 1527.1Q1638.6 1531.8 1639.6 1537.0Q1640.6 1542.2 1640.7 1547.0L1620.4 1549.5Q1620.3 1544.7 1619.8 1541.2Q1619.4 1537.7 1617.9 1535.8Q1616.5 1533.9 1613.4 1533.9Q1610.1 1533.9 1608.6 1536.7Q1607.1 1539.5 1607.1 1542.2Q1607.1 1548.2 1609.9 1551.9Q1612.8 1555.7 1617.4 1559.8L1626.2 1567.6Q1633.2 1573.5 1638.0 1581.0Q1642.9 1588.6 1642.9 1599.7Q1642.9 1607.2 1639.4 1613.3Q1636.0 1619.5 1629.7 1623.0Q1623.5 1626.6 1614.9 1626.6ZM1672.9 1625.0V1518.1H1696.6V1625.0ZM1731.0 1625.0V1518.1H1758.1Q1772.1 1518.1 1779.9 1521.6Q1787.7 1525.1 1790.8 1532.5Q1794.0 1540.0 1794.0 1551.9V1590.7Q1794.0 1602.7 1790.8 1610.3Q1787.7 1617.9 1779.9 1621.4Q1772.2 1625.0 1758.4 1625.0ZM1754.7 1608.6H1758.4Q1763.8 1608.6 1766.1 1607.0Q1768.5 1605.5 1769.1 1602.3Q1769.7 1599.1 1769.7 1594.4V1547.8Q1769.7 1543.0 1769.0 1540.1Q1768.3 1537.2 1765.9 1535.9Q1763.5 1534.6 1758.2 1534.6H1754.7ZM1826.9 1625.0V1518.1H1874.9V1534.2H1850.5V1560.7H1869.1V1577.1H1850.5V1609.0H1875.2V1625.0ZM1951.5 1625.0 1971.7 1518.1H1998.6L2018.5 1625.0H1996.7L1993.2 1602.4H1977.5L1973.8 1625.0ZM1979.6 1588.3H1990.9L1985.3 1546.6Z" fill="#14161A"/>
<rect x="1610" y="1682" width="380" height="7" fill="#14161A" opacity="0.6"/>
<path d="M1588.8 2045.7Q1584.2 2045.7 1581.3 2044.0Q1578.5 2042.2 1577.1 2039.0Q1575.8 2035.9 1575.8 2031.5V2030.1H1580.9Q1580.9 2030.2 1580.9 2030.7Q1580.9 2031.1 1580.9 2031.3Q1581.0 2034.4 1581.7 2036.7Q1582.4 2039.0 1584.1 2040.2Q1585.9 2041.4 1588.8 2041.4Q1591.5 2041.4 1593.4 2040.2Q1595.3 2039.0 1596.3 2036.3Q1597.2 2033.6 1597.2 2029.2Q1597.2 2023.8 1595.3 2020.3Q1593.4 2016.9 1588.5 2016.8Q1588.4 2016.8 1587.8 2016.8Q1587.2 2016.8 1587.1 2016.8V2011.7Q1587.2 2011.7 1587.8 2011.7Q1588.4 2011.7 1588.5 2011.7Q1593.2 2011.7 1595.2 2009.1Q1597.2 2006.5 1597.2 2000.6Q1597.2 1996.1 1595.6 1993.2Q1593.9 1990.4 1589.3 1990.4Q1584.9 1990.4 1583.0 1992.8Q1581.0 1995.3 1580.9 2000.5Q1580.9 2000.6 1580.9 2001.0Q1580.9 2001.3 1580.9 2001.5H1575.8V2000.1Q1575.8 1995.8 1577.1 1992.7Q1578.5 1989.6 1581.5 1987.8Q1584.5 1986.1 1589.3 1986.1Q1593.9 1986.1 1596.8 1988.0Q1599.8 1989.8 1601.2 1993.1Q1602.6 1996.4 1602.6 2000.6Q1602.6 2006.8 1600.3 2010.1Q1598.0 2013.5 1594.3 2014.3Q1596.5 2014.9 1598.4 2016.6Q1600.3 2018.4 1601.5 2021.4Q1602.6 2024.5 1602.6 2029.1Q1602.6 2034.0 1601.2 2037.8Q1599.8 2041.5 1596.8 2043.6Q1593.8 2045.7 1588.8 2045.7ZM1640.7 2045.7Q1636.2 2045.7 1633.3 2044.0Q1630.4 2042.2 1629.1 2039.0Q1627.8 2035.9 1627.8 2031.5V2030.1H1632.9Q1632.9 2030.2 1632.9 2030.7Q1632.9 2031.1 1632.9 2031.3Q1633.0 2034.4 1633.7 2036.7Q1634.4 2039.0 1636.1 2040.2Q1637.9 2041.4 1640.7 2041.4Q1643.5 2041.4 1645.4 2040.2Q1647.3 2039.0 1648.3 2036.3Q1649.2 2033.6 1649.2 2029.2Q1649.2 2023.8 1647.3 2020.3Q1645.3 2016.9 1640.5 2016.8Q1640.4 2016.8 1639.8 2016.8Q1639.2 2016.8 1639.1 2016.8V2011.7Q1639.2 2011.7 1639.8 2011.7Q1640.4 2011.7 1640.5 2011.7Q1645.2 2011.7 1647.2 2009.1Q1649.2 2006.5 1649.2 2000.6Q1649.2 1996.1 1647.5 1993.2Q1645.8 1990.4 1641.3 1990.4Q1636.9 1990.4 1634.9 1992.8Q1633.0 1995.3 1632.9 2000.5Q1632.9 2000.6 1632.9 2001.0Q1632.9 2001.3 1632.9 2001.5H1627.8V2000.1Q1627.8 1995.8 1629.1 1992.7Q1630.4 1989.6 1633.5 1987.8Q1636.5 1986.1 1641.2 1986.1Q1645.8 1986.1 1648.8 1988.0Q1651.8 1989.8 1653.2 1993.1Q1654.6 1996.4 1654.6 2000.6Q1654.6 2006.8 1652.3 2010.1Q1650.0 2013.5 1646.3 2014.3Q1648.4 2014.9 1650.3 2016.6Q1652.3 2018.4 1653.4 2021.4Q1654.6 2024.5 1654.6 2029.1Q1654.6 2034.0 1653.2 2037.8Q1651.8 2041.5 1648.8 2043.6Q1645.8 2045.7 1640.7 2045.7ZM1719.6 2045.0V1993.7Q1719.2 1994.4 1717.9 1995.0Q1716.6 1995.7 1715.1 1996.2Q1713.5 1996.7 1712.3 1997.1Q1711.0 1997.5 1710.6 1997.6V1993.3Q1711.7 1993.0 1713.0 1992.4Q1714.4 1991.9 1715.8 1991.0Q1717.1 1990.2 1718.5 1989.1Q1719.8 1988.0 1720.7 1986.7H1725.0V2045.0ZM1751.6 2045.0 1768.2 1986.7H1772.9L1756.3 2045.0ZM1809.1 2045.7Q1804.5 2045.7 1801.7 2044.0Q1798.8 2042.2 1797.4 2039.0Q1796.1 2035.9 1796.1 2031.5V2030.1H1801.2Q1801.2 2030.2 1801.2 2030.7Q1801.2 2031.1 1801.2 2031.3Q1801.3 2034.4 1802.0 2036.7Q1802.7 2039.0 1804.5 2040.2Q1806.2 2041.4 1809.1 2041.4Q1811.8 2041.4 1813.7 2040.2Q1815.6 2039.0 1816.6 2036.3Q1817.6 2033.6 1817.6 2029.2Q1817.6 2023.8 1815.6 2020.3Q1813.7 2016.9 1808.9 2016.8Q1808.7 2016.8 1808.1 2016.8Q1807.6 2016.8 1807.4 2016.8V2011.7Q1807.6 2011.7 1808.1 2011.7Q1808.7 2011.7 1808.9 2011.7Q1813.5 2011.7 1815.6 2009.1Q1817.6 2006.5 1817.6 2000.6Q1817.6 1996.1 1815.9 1993.2Q1814.2 1990.4 1809.6 1990.4Q1805.3 1990.4 1803.3 1992.8Q1801.3 1995.3 1801.2 2000.5Q1801.2 2000.6 1801.2 2001.0Q1801.2 2001.3 1801.2 2001.5H1796.1V2000.1Q1796.1 1995.8 1797.4 1992.7Q1798.8 1989.6 1801.8 1987.8Q1804.8 1986.1 1809.6 1986.1Q1814.2 1986.1 1817.1 1988.0Q1820.1 1989.8 1821.5 1993.1Q1823.0 1996.4 1823.0 2000.6Q1823.0 2006.8 1820.6 2010.1Q1818.3 2013.5 1814.6 2014.3Q1816.8 2014.9 1818.7 2016.6Q1820.6 2018.4 1821.8 2021.4Q1823.0 2024.5 1823.0 2029.1Q1823.0 2034.0 1821.6 2037.8Q1820.2 2041.5 1817.1 2043.6Q1814.1 2045.7 1809.1 2045.7ZM1881.0 2045.0V1986.7H1894.2Q1899.6 1986.7 1902.8 1988.4Q1905.9 1990.2 1907.3 1993.6Q1908.6 1996.9 1908.6 2001.5Q1908.6 2004.8 1907.9 2007.6Q1907.2 2010.5 1905.5 2012.5Q1903.8 2014.5 1900.6 2015.2L1909.5 2045.0H1904.2L1895.6 2016.3H1886.5V2045.0ZM1886.5 2012.3H1893.9Q1897.6 2012.3 1899.6 2011.1Q1901.6 2009.9 1902.5 2007.5Q1903.3 2005.1 1903.3 2001.5Q1903.3 1996.1 1901.4 1993.4Q1899.6 1990.8 1894.0 1990.8H1886.5ZM1935.1 2045.0V1986.7H1949.1Q1954.4 1986.7 1957.4 1988.6Q1960.4 1990.6 1961.7 1994.0Q1962.9 1997.5 1962.9 2002.2Q1962.9 2006.3 1961.6 2009.8Q1960.3 2013.2 1957.2 2015.3Q1954.2 2017.4 1949.2 2017.4H1940.6V2045.0ZM1940.6 2013.3H1947.6Q1951.1 2013.3 1953.3 2012.3Q1955.5 2011.2 1956.5 2008.8Q1957.5 2006.3 1957.5 2002.2Q1957.5 1997.7 1956.7 1995.2Q1955.8 1992.7 1953.7 1991.8Q1951.6 1990.8 1947.7 1990.8H1940.6ZM1986.7 2045.0 1988.1 1986.7H1993.6L2005.1 2037.3L2016.9 1986.7H2022.3L2023.8 2045.0H2019.2L2018.1 1998.6L2006.9 2045.0H2003.4L1992.4 1998.6L1991.2 2045.0Z" fill="#14161A" opacity="0.85"/>
<path d="M1690.2 2160.6Q1686.3 2160.6 1683.7 2159.0Q1681.1 2157.3 1679.8 2154.4Q1678.5 2151.5 1678.2 2147.6L1682.2 2146.4Q1682.5 2149.4 1683.2 2151.8Q1684.0 2154.2 1685.7 2155.5Q1687.3 2156.9 1690.2 2156.9Q1693.4 2156.9 1695.2 2155.3Q1696.9 2153.6 1696.9 2150.0Q1696.9 2146.8 1695.4 2144.5Q1693.8 2142.2 1691.1 2139.7L1682.7 2131.6Q1680.4 2129.4 1679.4 2127.1Q1678.3 2124.8 1678.3 2122.0Q1678.3 2117.0 1681.2 2114.4Q1684.2 2111.7 1689.1 2111.7Q1691.6 2111.7 1693.7 2112.4Q1695.7 2113.0 1697.2 2114.5Q1698.6 2115.9 1699.4 2118.2Q1700.3 2120.5 1700.5 2123.8L1696.7 2124.8Q1696.5 2121.8 1695.7 2119.6Q1695.0 2117.5 1693.4 2116.4Q1691.9 2115.2 1689.1 2115.2Q1686.1 2115.2 1684.3 2116.8Q1682.4 2118.3 1682.4 2121.6Q1682.4 2123.5 1683.1 2125.1Q1683.8 2126.7 1685.7 2128.5L1694.2 2136.5Q1697.0 2139.2 1699.1 2142.4Q1701.1 2145.7 1701.1 2149.7Q1701.1 2153.3 1699.8 2155.7Q1698.4 2158.2 1695.9 2159.4Q1693.4 2160.6 1690.2 2160.6ZM1730.8 2160.0V2115.7H1721.7V2112.2H1744.1V2115.7H1735.3V2160.0ZM1767.0 2160.0V2112.2H1784.3V2115.7H1771.5V2133.6H1781.9V2136.9H1771.5V2156.6H1784.4V2160.0ZM1808.2 2160.0V2112.2H1819.0Q1823.5 2112.2 1826.1 2113.6Q1828.7 2115.1 1829.8 2117.8Q1830.9 2120.6 1830.9 2124.3Q1830.9 2127.0 1830.3 2129.4Q1829.7 2131.7 1828.3 2133.4Q1826.9 2135.0 1824.3 2135.6L1831.6 2160.0H1827.2L1820.2 2136.5H1812.7V2160.0ZM1812.7 2133.2H1818.8Q1821.8 2133.2 1823.5 2132.2Q1825.1 2131.2 1825.8 2129.2Q1826.5 2127.3 1826.5 2124.3Q1826.5 2119.9 1825.0 2117.7Q1823.5 2115.5 1818.9 2115.5H1812.7ZM1856.1 2160.0V2112.2H1873.4V2115.7H1860.7V2133.6H1871.1V2136.9H1860.7V2156.6H1873.5V2160.0ZM1908.7 2160.6Q1903.9 2160.6 1901.3 2158.7Q1898.6 2156.9 1897.5 2153.5Q1896.4 2150.2 1896.4 2145.9V2126.1Q1896.4 2121.7 1897.5 2118.5Q1898.7 2115.2 1901.4 2113.5Q1904.1 2111.7 1908.7 2111.7Q1913.3 2111.7 1916.0 2113.5Q1918.7 2115.2 1919.8 2118.5Q1920.9 2121.7 1920.9 2126.1V2145.9Q1920.9 2150.3 1919.9 2153.5Q1918.8 2156.8 1916.1 2158.7Q1913.4 2160.6 1908.7 2160.6ZM1908.7 2157.0Q1911.9 2157.0 1913.5 2155.7Q1915.2 2154.5 1915.8 2152.2Q1916.4 2149.9 1916.4 2146.9V2125.2Q1916.4 2122.2 1915.8 2120.0Q1915.2 2117.7 1913.5 2116.5Q1911.9 2115.3 1908.7 2115.3Q1905.5 2115.3 1903.9 2116.5Q1902.2 2117.7 1901.5 2120.0Q1900.9 2122.2 1900.9 2125.2V2146.9Q1900.9 2149.9 1901.5 2152.2Q1902.2 2154.5 1903.9 2155.7Q1905.5 2157.0 1908.7 2157.0Z" fill="#14161A" opacity="0.7"/>
<circle cx="1800.0" cy="1830.0" r="52" fill="#FFFFFF"/>
<circle cx="1800.0" cy="1830.0" r="52" fill="none" stroke="#14161A" stroke-width="12"/>
<g transform="translate(3320,430) rotate(136.72)">
<rect x="0" y="-19" width="1209" height="38" rx="19" fill="#14161A"/>
<rect x="1169" y="-58" width="190" height="116" rx="22" fill="#14161A"/>
<rect x="1329" y="-14" width="52" height="28" rx="8" fill="#14161A"/>
</g>
<circle cx="3320" cy="430" r="118" fill="#14161A"/>
<circle cx="3320" cy="430" r="52" fill="#FFFFFF"/>
<circle cx="3320" cy="430" r="52" fill="none" stroke="#14161A" stroke-width="14"/>
<path d="M1205.2 3710.0H1238.2V3890.0H1292.5V3920.0H1205.2ZM1336.1 3870.2V3759.8Q1336.1 3734.6 1349.0 3720.8Q1361.9 3707.0 1386.2 3707.0Q1410.5 3707.0 1423.3 3720.8Q1436.2 3734.6 1436.2 3759.8V3870.2Q1436.2 3895.4 1423.3 3909.2Q1410.5 3923.0 1386.2 3923.0Q1361.9 3923.0 1349.0 3909.2Q1336.1 3895.4 1336.1 3870.2ZM1403.2 3872.3V3757.7Q1403.2 3737.0 1386.2 3737.0Q1369.1 3737.0 1369.1 3757.7V3872.3Q1369.1 3893.0 1386.2 3893.0Q1403.2 3893.0 1403.2 3872.3ZM1488.5 3710.0H1529.9L1562.0 3835.7H1562.6V3710.0H1592.0V3920.0H1558.1L1518.5 3766.7H1517.9V3920.0H1488.5ZM1644.2 3870.2V3759.8Q1644.2 3734.3 1656.8 3720.7Q1669.3 3707.0 1693.3 3707.0Q1717.3 3707.0 1729.9 3720.7Q1742.5 3734.3 1742.5 3759.8V3777.8H1711.3V3757.7Q1711.3 3737.0 1694.2 3737.0Q1677.2 3737.0 1677.2 3757.7V3872.6Q1677.2 3893.0 1694.2 3893.0Q1711.3 3893.0 1711.3 3872.6V3831.5H1694.8V3801.5H1742.5V3870.2Q1742.5 3895.7 1729.9 3909.3Q1717.3 3923.0 1693.3 3923.0Q1669.3 3923.0 1656.8 3909.3Q1644.2 3895.7 1644.2 3870.2ZM1871.8 3710.0H1920.5Q1945.0 3710.0 1957.3 3723.2Q1969.6 3736.4 1969.6 3761.9V3782.6Q1969.6 3808.1 1957.3 3821.3Q1945.0 3834.5 1920.5 3834.5H1904.8V3920.0H1871.8ZM1920.5 3804.5Q1928.5 3804.5 1932.6 3800.0Q1936.6 3795.5 1936.6 3784.7V3759.8Q1936.6 3749.0 1932.6 3744.5Q1928.5 3740.0 1920.5 3740.0H1904.8V3804.5ZM2017.6 3710.0H2050.7V3890.0H2104.9V3920.0H2017.6ZM2176.4 3710.0H2221.1L2255.2 3920.0H2222.2L2216.2 3878.3V3878.9H2178.8L2172.8 3920.0H2142.2ZM2212.4 3850.4 2197.7 3746.6H2197.1L2182.7 3850.4ZM2331.4 3830.6 2291.5 3710.0H2326.7L2349.2 3787.1H2349.8L2372.2 3710.0H2404.3L2364.4 3830.6V3920.0H2331.4Z" fill="#14161A"/>
<rect x="1193" y="3994" width="1214" height="12" fill="#E4572E"/>
<path d="M989.0 4186.8Q983.3 4186.8 980.0 4184.4Q976.8 4182.0 975.5 4177.7Q974.2 4173.4 974.2 4167.7V4144.3Q974.2 4138.5 975.5 4134.3Q976.7 4130.1 980.0 4127.7Q983.3 4125.4 989.3 4125.4Q994.7 4125.4 997.9 4127.4Q1001.0 4129.4 1002.4 4133.3Q1003.8 4137.1 1003.8 4142.6V4144.7H998.5V4142.6Q998.5 4138.4 997.7 4135.5Q997.0 4132.7 995.0 4131.3Q993.1 4129.9 989.4 4129.9Q985.3 4129.9 983.2 4131.7Q981.1 4133.5 980.5 4136.6Q979.9 4139.7 979.9 4143.7V4168.3Q979.9 4172.7 980.6 4175.8Q981.4 4178.8 983.5 4180.5Q985.6 4182.2 989.5 4182.2Q993.3 4182.2 995.2 4180.5Q997.2 4178.8 998.1 4175.7Q998.9 4172.6 998.9 4168.2V4161.1H990.0V4156.9H1004.1V4185.9H1000.4L999.8 4179.1Q998.7 4182.5 996.1 4184.6Q993.5 4186.8 989.0 4186.8ZM1034.5 4185.9V4126.0H1048.1Q1053.7 4126.0 1056.9 4127.8Q1060.1 4129.6 1061.6 4133.1Q1063.0 4136.5 1063.0 4141.2Q1063.0 4144.6 1062.2 4147.5Q1061.5 4150.5 1059.7 4152.6Q1057.9 4154.6 1054.7 4155.3L1063.8 4185.9H1058.4L1049.6 4156.5H1040.2V4185.9ZM1040.2 4152.3H1047.8Q1051.6 4152.3 1053.6 4151.1Q1055.7 4149.8 1056.6 4147.4Q1057.5 4144.9 1057.5 4141.2Q1057.5 4135.7 1055.6 4133.0Q1053.6 4130.2 1047.9 4130.2H1040.2ZM1107.4 4186.7Q1101.4 4186.7 1098.0 4184.3Q1094.6 4182.0 1093.3 4177.8Q1091.9 4173.7 1091.9 4168.3V4143.4Q1091.9 4137.9 1093.3 4133.9Q1094.8 4129.8 1098.1 4127.6Q1101.5 4125.4 1107.4 4125.4Q1113.1 4125.4 1116.5 4127.6Q1119.9 4129.8 1121.3 4133.9Q1122.7 4137.9 1122.7 4143.4V4168.3Q1122.7 4173.7 1121.3 4177.8Q1119.9 4181.9 1116.6 4184.3Q1113.3 4186.7 1107.4 4186.7ZM1107.4 4182.2Q1111.3 4182.2 1113.4 4180.6Q1115.4 4179.0 1116.2 4176.1Q1117.0 4173.3 1117.0 4169.5V4142.4Q1117.0 4138.6 1116.2 4135.8Q1115.4 4133.0 1113.4 4131.4Q1111.3 4129.9 1107.4 4129.9Q1103.4 4129.9 1101.3 4131.4Q1099.1 4133.0 1098.4 4135.8Q1097.6 4138.6 1097.6 4142.4V4169.5Q1097.6 4173.3 1098.4 4176.1Q1099.1 4179.0 1101.3 4180.6Q1103.4 4182.2 1107.4 4182.2ZM1166.9 4186.7Q1160.9 4186.7 1157.6 4184.3Q1154.2 4182.0 1152.8 4177.8Q1151.5 4173.7 1151.5 4168.3V4143.4Q1151.5 4137.9 1152.9 4133.9Q1154.3 4129.8 1157.7 4127.6Q1161.1 4125.4 1166.9 4125.4Q1172.7 4125.4 1176.1 4127.6Q1179.4 4129.8 1180.8 4133.9Q1182.2 4137.9 1182.2 4143.4V4168.3Q1182.2 4173.7 1180.9 4177.8Q1179.5 4181.9 1176.2 4184.3Q1172.8 4186.7 1166.9 4186.7ZM1166.9 4182.2Q1170.9 4182.2 1172.9 4180.6Q1175.0 4179.0 1175.8 4176.1Q1176.5 4173.3 1176.5 4169.5V4142.4Q1176.5 4138.6 1175.8 4135.8Q1175.0 4133.0 1172.9 4131.4Q1170.9 4129.9 1166.9 4129.9Q1162.9 4129.9 1160.8 4131.4Q1158.7 4133.0 1157.9 4135.8Q1157.2 4138.6 1157.2 4142.4V4169.5Q1157.2 4173.3 1157.9 4176.1Q1158.7 4179.0 1160.8 4180.6Q1162.9 4182.2 1166.9 4182.2ZM1222.9 4185.9 1208.8 4126.0H1214.2L1225.5 4175.7L1236.2 4126.0H1241.5L1228.0 4185.9ZM1269.1 4185.9V4126.0H1290.8V4130.4H1274.8V4152.9H1287.8V4157.0H1274.8V4181.7H1291.0V4185.9ZM1390.5 4161.3V4154.8H1396.0V4161.3ZM1497.3 4185.9V4126.0H1501.3L1520.4 4172.5V4126.0H1525.3V4185.9H1521.3L1502.1 4138.9V4185.9ZM1556.4 4185.9V4126.0H1578.1V4130.4H1562.1V4152.9H1575.1V4157.0H1562.1V4181.7H1578.2V4185.9ZM1606.6 4185.9V4126.0H1628.2V4130.4H1612.3V4152.9H1625.3V4157.0H1612.3V4181.7H1628.4V4185.9ZM1656.8 4185.9V4126.0H1669.8Q1676.1 4126.0 1679.6 4128.2Q1683.2 4130.4 1684.6 4134.4Q1686.1 4138.4 1686.1 4143.6V4167.4Q1686.1 4173.0 1684.6 4177.2Q1683.2 4181.4 1679.8 4183.6Q1676.3 4185.9 1670.4 4185.9ZM1662.4 4181.7H1670.0Q1674.7 4181.7 1676.9 4179.8Q1679.2 4177.8 1679.8 4174.4Q1680.3 4170.9 1680.3 4166.6V4144.2Q1680.3 4139.7 1679.6 4136.6Q1678.8 4133.5 1676.5 4132.0Q1674.3 4130.4 1669.8 4130.4H1662.4ZM1716.1 4185.9V4126.0H1721.7V4181.7H1738.7V4185.9ZM1765.0 4185.9V4126.0H1786.7V4130.4H1770.7V4152.9H1783.7V4157.0H1770.7V4181.7H1786.8V4185.9ZM1886.4 4161.3V4154.8H1891.9V4161.3ZM1993.1 4185.9V4126.0H1997.2L2016.3 4172.5V4126.0H2021.2V4185.9H2017.2L1998.0 4138.9V4185.9ZM2066.5 4186.7Q2060.6 4186.7 2057.2 4184.3Q2053.8 4182.0 2052.5 4177.8Q2051.1 4173.7 2051.1 4168.3V4143.4Q2051.1 4137.9 2052.5 4133.9Q2054.0 4129.8 2057.3 4127.6Q2060.7 4125.4 2066.5 4125.4Q2072.3 4125.4 2075.7 4127.6Q2079.1 4129.8 2080.5 4133.9Q2081.9 4137.9 2081.9 4143.4V4168.3Q2081.9 4173.7 2080.5 4177.8Q2079.1 4181.9 2075.8 4184.3Q2072.5 4186.7 2066.5 4186.7ZM2066.5 4182.2Q2070.5 4182.2 2072.5 4180.6Q2074.6 4179.0 2075.4 4176.1Q2076.2 4173.3 2076.2 4169.5V4142.4Q2076.2 4138.6 2075.4 4135.8Q2074.6 4133.0 2072.5 4131.4Q2070.5 4129.9 2066.5 4129.9Q2062.6 4129.9 2060.4 4131.4Q2058.3 4133.0 2057.6 4135.8Q2056.8 4138.6 2056.8 4142.4V4169.5Q2056.8 4173.3 2057.6 4176.1Q2058.3 4179.0 2060.4 4180.6Q2062.6 4182.2 2066.5 4182.2ZM2119.3 4185.9V4130.4H2108.0V4126.0H2136.0V4130.4H2124.9V4185.9ZM2163.3 4185.9V4126.0H2168.9V4152.6H2187.8V4126.0H2193.4V4185.9H2187.8V4156.8H2168.9V4185.9ZM2224.8 4185.9V4126.0H2230.4V4185.9ZM2261.8 4185.9V4126.0H2265.8L2284.9 4172.5V4126.0H2289.8V4185.9H2285.8L2266.6 4138.9V4185.9ZM2334.5 4186.8Q2328.8 4186.8 2325.6 4184.4Q2322.4 4182.0 2321.0 4177.7Q2319.7 4173.4 2319.7 4167.7V4144.3Q2319.7 4138.5 2321.0 4134.3Q2322.3 4130.1 2325.6 4127.7Q2328.9 4125.4 2334.9 4125.4Q2340.3 4125.4 2343.4 4127.4Q2346.6 4129.4 2348.0 4133.3Q2349.4 4137.1 2349.4 4142.6V4144.7H2344.0V4142.6Q2344.0 4138.4 2343.3 4135.5Q2342.5 4132.7 2340.6 4131.3Q2338.6 4129.9 2334.9 4129.9Q2330.8 4129.9 2328.7 4131.7Q2326.7 4133.5 2326.0 4136.6Q2325.4 4139.7 2325.4 4143.7V4168.3Q2325.4 4172.7 2326.2 4175.8Q2327.0 4178.8 2329.1 4180.5Q2331.2 4182.2 2335.0 4182.2Q2338.8 4182.2 2340.8 4180.5Q2342.8 4178.8 2343.6 4175.7Q2344.4 4172.6 2344.4 4168.2V4161.1H2335.5V4156.9H2349.6V4185.9H2346.0L2345.3 4179.1Q2344.2 4182.5 2341.6 4184.6Q2339.1 4186.8 2334.5 4186.8ZM2451.6 4185.9V4126.0H2473.3V4130.4H2457.3V4152.9H2470.4V4157.0H2457.3V4181.7H2473.5V4185.9ZM2501.9 4185.9V4126.0H2507.5V4181.7H2524.5V4185.9ZM2563.6 4186.7Q2558.7 4186.7 2555.5 4184.6Q2552.3 4182.6 2550.7 4178.9Q2549.0 4175.3 2548.7 4170.4L2553.6 4168.9Q2554.0 4172.6 2554.9 4175.6Q2555.9 4178.6 2558.0 4180.4Q2560.1 4182.1 2563.7 4182.1Q2567.7 4182.1 2569.9 4180.0Q2572.1 4177.9 2572.1 4173.4Q2572.1 4169.4 2570.2 4166.6Q2568.2 4163.7 2564.8 4160.5L2554.2 4150.3Q2551.4 4147.6 2550.1 4144.7Q2548.7 4141.8 2548.7 4138.3Q2548.7 4132.1 2552.4 4128.7Q2556.1 4125.4 2562.3 4125.4Q2565.5 4125.4 2568.0 4126.2Q2570.6 4127.0 2572.4 4128.8Q2574.2 4130.7 2575.2 4133.5Q2576.3 4136.4 2576.6 4140.6L2571.8 4141.8Q2571.5 4138.1 2570.6 4135.4Q2569.7 4132.7 2567.7 4131.3Q2565.8 4129.8 2562.3 4129.8Q2558.6 4129.8 2556.2 4131.8Q2553.8 4133.7 2553.8 4137.8Q2553.8 4140.2 2554.8 4142.2Q2555.7 4144.2 2558.1 4146.5L2568.6 4156.5Q2572.2 4159.8 2574.8 4163.9Q2577.4 4168.0 2577.4 4173.1Q2577.4 4177.6 2575.6 4180.6Q2573.9 4183.6 2570.8 4185.2Q2567.7 4186.7 2563.6 4186.7ZM2605.6 4185.9V4126.0H2627.2V4130.4H2611.3V4152.9H2624.3V4157.0H2611.3V4181.7H2627.4V4185.9Z" fill="#14161A" opacity="0.72"/>
</svg>