<svg xmlns="http://www.w3.org/2000/svg" viewBox="0 0 2362 1134" width="2362" height="1134">
<rect x="76.8" y="427.8" width="7.6" height="198.5" rx="3.8" fill="#2E86A8"/>
<rect x="89.9" y="445.4" width="7.6" height="163.3" rx="3.8" fill="#2E84A9"/>
<rect x="103.1" y="446.2" width="7.6" height="161.6" rx="3.8" fill="#2E82A9"/>
<rect x="116.3" y="459.0" width="7.6" height="135.9" rx="3.8" fill="#2E80A9"/>
<rect x="129.5" y="439.6" width="7.6" height="174.8" rx="3.8" fill="#2E7EAA"/>
<rect x="142.7" y="406.8" width="7.6" height="240.3" rx="3.8" fill="#2E7CAA"/>
<rect x="155.8" y="391.4" width="7.6" height="271.2" rx="3.8" fill="#2E7AAB"/>
<rect x="169.0" y="414.3" width="7.6" height="225.3" rx="3.8" fill="#2E78AB"/>
<rect x="182.2" y="381.2" width="7.6" height="291.5" rx="3.8" fill="#2E76AB"/>
<rect x="195.4" y="365.1" width="7.6" height="323.8" rx="3.8" fill="#2E74AC"/>
<rect x="208.6" y="419.9" width="7.6" height="214.1" rx="3.8" fill="#2E72AC"/>
<rect x="221.7" y="429.6" width="7.6" height="194.7" rx="3.8" fill="#2D70AD"/>
<rect x="234.9" y="387.9" width="7.6" height="278.3" rx="3.8" fill="#2D6EAD"/>
<rect x="248.1" y="411.1" width="7.6" height="231.8" rx="3.8" fill="#2D6BAE"/>
<rect x="261.3" y="361.3" width="7.6" height="331.4" rx="3.8" fill="#2D69AE"/>
<rect x="274.4" y="263.1" width="7.6" height="527.7" rx="3.8" fill="#2D67AE"/>
<rect x="287.6" y="316.8" width="7.6" height="420.4" rx="3.8" fill="#2D65AF"/>
<rect x="300.8" y="376.3" width="7.6" height="301.4" rx="3.8" fill="#2D63AF"/>
<rect x="314.0" y="252.4" width="7.6" height="549.1" rx="3.8" fill="#2D61B0"/>
<rect x="327.2" y="346.4" width="7.6" height="361.2" rx="3.8" fill="#2D5EB0"/>
<rect x="340.3" y="227.9" width="7.6" height="598.2" rx="3.8" fill="#2D5CB1"/>
<rect x="353.5" y="336.0" width="7.6" height="382.0" rx="3.8" fill="#2D5AB1"/>
<rect x="366.7" y="197.7" width="7.6" height="658.5" rx="3.8" fill="#2D58B1"/>
<rect x="379.9" y="298.0" width="7.6" height="458.0" rx="3.8" fill="#2D55B2"/>
<rect x="393.1" y="349.9" width="7.6" height="354.1" rx="3.8" fill="#2D53B2"/>
<rect x="406.2" y="180.9" width="7.6" height="692.1" rx="3.8" fill="#2D51B3"/>
<rect x="419.4" y="290.7" width="7.6" height="472.7" rx="3.8" fill="#2D4FB3"/>
<rect x="432.6" y="273.0" width="7.6" height="508.0" rx="3.8" fill="#2D4CB4"/>
<rect x="445.8" y="282.3" width="7.6" height="489.5" rx="3.8" fill="#2C4AB4"/>
<rect x="458.9" y="139.3" width="7.6" height="775.4" rx="3.8" fill="#2C47B4"/>
<rect x="472.1" y="321.7" width="7.6" height="410.7" rx="3.8" fill="#2C45B5"/>
<rect x="485.3" y="176.0" width="7.6" height="702.1" rx="3.8" fill="#2C43B5"/>
<rect x="498.5" y="315.0" width="7.6" height="424.0" rx="3.8" fill="#2C40B6"/>
<rect x="511.7" y="242.4" width="7.6" height="569.2" rx="3.8" fill="#2C3EB6"/>
<rect x="524.8" y="144.3" width="7.6" height="765.4" rx="3.8" fill="#2C3BB7"/>
<rect x="538.0" y="155.3" width="7.6" height="743.5" rx="3.8" fill="#2C39B7"/>
<rect x="551.2" y="312.8" width="7.6" height="428.4" rx="3.8" fill="#2C36B7"/>
<rect x="564.4" y="132.7" width="7.6" height="788.6" rx="3.8" fill="#2C34B8"/>
<rect x="577.6" y="257.8" width="7.6" height="538.5" rx="3.8" fill="#2C31B8"/>
<rect x="590.7" y="199.8" width="7.6" height="654.5" rx="3.8" fill="#2C2FB9"/>
<rect x="603.9" y="250.4" width="7.6" height="553.2" rx="3.8" fill="#2C2CB9"/>
<rect x="617.1" y="330.7" width="7.6" height="392.7" rx="3.8" fill="#2E2CBA"/>
<rect x="630.3" y="329.2" width="7.6" height="395.6" rx="3.8" fill="#302CBA"/>
<rect x="643.4" y="331.5" width="7.6" height="391.0" rx="3.8" fill="#332CBA"/>
<rect x="656.6" y="244.0" width="7.6" height="566.0" rx="3.8" fill="#352BBB"/>
<rect x="669.8" y="231.5" width="7.6" height="591.0" rx="3.8" fill="#382BBB"/>
<rect x="683.0" y="150.7" width="7.6" height="752.7" rx="3.8" fill="#3A2BBC"/>
<rect x="696.2" y="247.6" width="7.6" height="558.8" rx="3.8" fill="#3D2BBC"/>
<rect x="709.3" y="321.5" width="7.6" height="411.0" rx="3.8" fill="#402BBD"/>
<rect x="722.5" y="266.3" width="7.6" height="521.4" rx="3.8" fill="#422BBD"/>
<rect x="735.7" y="233.5" width="7.6" height="587.1" rx="3.8" fill="#452BBD"/>
<rect x="748.9" y="265.8" width="7.6" height="522.4" rx="3.8" fill="#482BBE"/>
<rect x="762.1" y="300.9" width="7.6" height="452.2" rx="3.8" fill="#4A2BBE"/>
<rect x="775.2" y="310.1" width="7.6" height="433.8" rx="3.8" fill="#4D2BBF"/>
<rect x="788.4" y="227.7" width="7.6" height="598.6" rx="3.8" fill="#502BBF"/>
<rect x="801.6" y="177.8" width="7.6" height="698.3" rx="3.8" fill="#522BC0"/>
<rect x="814.8" y="256.6" width="7.6" height="540.9" rx="3.8" fill="#552BC0"/>
<rect x="827.9" y="138.1" width="7.6" height="777.8" rx="3.8" fill="#582BC1"/>
<rect x="841.1" y="161.6" width="7.6" height="730.8" rx="3.8" fill="#5B2AC1"/>
<rect x="854.3" y="307.5" width="7.6" height="439.1" rx="3.8" fill="#5D2AC1"/>
<rect x="867.5" y="158.6" width="7.6" height="736.9" rx="3.8" fill="#602AC2"/>
<rect x="880.7" y="265.6" width="7.6" height="522.7" rx="3.8" fill="#632AC2"/>
<rect x="893.8" y="245.1" width="7.6" height="563.9" rx="3.8" fill="#662AC3"/>
<rect x="907.0" y="267.6" width="7.6" height="518.7" rx="3.8" fill="#692AC3"/>
<rect x="920.2" y="280.2" width="7.6" height="493.7" rx="3.8" fill="#6C2AC4"/>
<rect x="933.4" y="281.7" width="7.6" height="490.6" rx="3.8" fill="#6E2AC4"/>
<rect x="946.6" y="220.4" width="7.6" height="613.3" rx="3.8" fill="#712AC5"/>
<rect x="959.7" y="162.1" width="7.6" height="729.8" rx="3.8" fill="#742AC5"/>
<rect x="972.9" y="293.8" width="7.6" height="466.5" rx="3.8" fill="#772AC5"/>
<rect x="986.1" y="149.8" width="7.6" height="754.4" rx="3.8" fill="#7A2AC6"/>
<rect x="999.3" y="242.7" width="7.6" height="568.6" rx="3.8" fill="#7D2AC6"/>
<rect x="1012.4" y="163.8" width="7.6" height="726.3" rx="3.8" fill="#8029C7"/>
<rect x="1025.6" y="215.2" width="7.6" height="623.7" rx="3.8" fill="#8329C7"/>
<rect x="1038.8" y="217.5" width="7.6" height="619.1" rx="3.8" fill="#8629C8"/>
<rect x="1052.0" y="264.7" width="7.6" height="524.5" rx="3.8" fill="#8929C8"/>
<rect x="1065.2" y="299.7" width="7.6" height="454.7" rx="3.8" fill="#8C29C9"/>
<rect x="1078.3" y="368.0" width="7.6" height="318.0" rx="3.8" fill="#9029C9"/>
<rect x="1091.5" y="318.6" width="7.6" height="416.8" rx="3.8" fill="#9329C9"/>
<rect x="1104.7" y="329.9" width="7.6" height="394.2" rx="3.8" fill="#9629CA"/>
<rect x="1117.9" y="294.9" width="7.6" height="464.3" rx="3.8" fill="#9929CA"/>
<rect x="1131.1" y="416.4" width="7.6" height="221.1" rx="3.8" fill="#9C29CB"/>
<rect x="1144.2" y="402.9" width="7.6" height="248.3" rx="3.8" fill="#9F29CB"/>
<rect x="1157.4" y="373.2" width="7.6" height="307.6" rx="3.8" fill="#A329CC"/>
<rect x="1170.6" y="421.8" width="7.6" height="210.3" rx="3.8" fill="#A628CC"/>
<rect x="1183.8" y="407.0" width="7.6" height="239.9" rx="3.8" fill="#A928CD"/>
<rect x="1196.9" y="421.0" width="7.6" height="212.1" rx="3.8" fill="#AC28CD"/>
<rect x="1210.1" y="435.6" width="7.6" height="182.8" rx="3.8" fill="#B028CE"/>
<rect x="1223.3" y="414.9" width="7.6" height="224.1" rx="3.8" fill="#B328CE"/>
<rect x="1236.5" y="381.2" width="7.6" height="291.5" rx="3.8" fill="#B628CE"/>
<rect x="1249.7" y="381.7" width="7.6" height="290.5" rx="3.8" fill="#BA28CF"/>
<rect x="1262.8" y="399.7" width="7.6" height="254.5" rx="3.8" fill="#BD28CF"/>
<rect x="1276.0" y="410.5" width="7.6" height="232.9" rx="3.8" fill="#C128D0"/>
<rect x="1289.2" y="329.0" width="7.6" height="396.0" rx="3.8" fill="#C428D0"/>
<rect x="1302.4" y="406.1" width="7.6" height="241.8" rx="3.8" fill="#C728D1"/>
<rect x="1315.6" y="304.8" width="7.6" height="444.5" rx="3.8" fill="#CB27D1"/>
<rect x="1328.7" y="398.0" width="7.6" height="257.9" rx="3.8" fill="#CE27D2"/>
<rect x="1341.9" y="324.1" width="7.6" height="405.7" rx="3.8" fill="#D227D2"/>
<rect x="1355.1" y="329.9" width="7.6" height="394.1" rx="3.8" fill="#D327D0"/>
<rect x="1368.3" y="242.6" width="7.6" height="568.8" rx="3.8" fill="#D327CD"/>
<rect x="1381.4" y="205.2" width="7.6" height="643.7" rx="3.8" fill="#D327CB"/>
<rect x="1394.6" y="346.4" width="7.6" height="361.3" rx="3.8" fill="#D427C8"/>
<rect x="1407.8" y="309.0" width="7.6" height="436.1" rx="3.8" fill="#D427C5"/>
<rect x="1421.0" y="265.9" width="7.6" height="522.1" rx="3.8" fill="#D527C2"/>
<rect x="1434.2" y="241.7" width="7.6" height="570.7" rx="3.8" fill="#D527C0"/>
<rect x="1447.3" y="283.1" width="7.6" height="487.7" rx="3.8" fill="#D627BD"/>
<rect x="1460.5" y="136.3" width="7.6" height="781.4" rx="3.8" fill="#D626BA"/>
<rect x="1473.7" y="268.9" width="7.6" height="516.2" rx="3.8" fill="#D726B7"/>
<rect x="1486.9" y="183.0" width="7.6" height="688.1" rx="3.8" fill="#D726B5"/>
<rect x="1500.1" y="256.8" width="7.6" height="540.4" rx="3.8" fill="#D826B2"/>
<rect x="1513.2" y="123.7" width="7.6" height="806.6" rx="3.8" fill="#D826AF"/>
<rect x="1526.4" y="330.8" width="7.6" height="392.4" rx="3.8" fill="#D926AC"/>
<rect x="1539.6" y="330.6" width="7.6" height="392.8" rx="3.8" fill="#D926A9"/>
<rect x="1552.8" y="325.2" width="7.6" height="403.6" rx="3.8" fill="#D926A6"/>
<rect x="1565.9" y="305.2" width="7.6" height="443.5" rx="3.8" fill="#DA26A3"/>
<rect x="1579.1" y="174.7" width="7.6" height="704.6" rx="3.8" fill="#DA26A0"/>
<rect x="1592.3" y="134.2" width="7.6" height="785.6" rx="3.8" fill="#DA269D"/>
<rect x="1605.5" y="305.6" width="7.6" height="442.8" rx="3.8" fill="#DA279A"/>
<rect x="1618.7" y="311.5" width="7.6" height="431.0" rx="3.8" fill="#DA2797"/>
<rect x="1631.8" y="283.0" width="7.6" height="488.0" rx="3.8" fill="#DB2794"/>
<rect x="1645.0" y="144.9" width="7.6" height="764.2" rx="3.8" fill="#DB2791"/>
<rect x="1658.2" y="333.9" width="7.6" height="386.2" rx="3.8" fill="#DB278E"/>
<rect x="1671.4" y="125.0" width="7.6" height="804.1" rx="3.8" fill="#DB278B"/>
<rect x="1684.6" y="164.5" width="7.6" height="725.0" rx="3.8" fill="#DB2888"/>
<rect x="1697.7" y="301.9" width="7.6" height="450.3" rx="3.8" fill="#DC2885"/>
<rect x="1710.9" y="261.0" width="7.6" height="532.0" rx="3.8" fill="#DC2882"/>
<rect x="1724.1" y="202.7" width="7.6" height="648.5" rx="3.8" fill="#DC287F"/>
<rect x="1737.3" y="193.9" width="7.6" height="666.3" rx="3.8" fill="#DC287C"/>
<rect x="1750.4" y="251.0" width="7.6" height="551.9" rx="3.8" fill="#DC2879"/>
<rect x="1763.6" y="149.4" width="7.6" height="755.3" rx="3.8" fill="#DD2976"/>
<rect x="1776.8" y="315.6" width="7.6" height="422.7" rx="3.8" fill="#DD2973"/>
<rect x="1790.0" y="215.9" width="7.6" height="622.2" rx="3.8" fill="#DD2970"/>
<rect x="1803.2" y="216.3" width="7.6" height="621.4" rx="3.8" fill="#DD296D"/>
<rect x="1816.3" y="236.5" width="7.6" height="580.9" rx="3.8" fill="#DD296A"/>
<rect x="1829.5" y="123.7" width="7.6" height="806.5" rx="3.8" fill="#DE2967"/>
<rect x="1842.7" y="237.4" width="7.6" height="579.2" rx="3.8" fill="#DE2A64"/>
<rect x="1855.9" y="139.8" width="7.6" height="774.3" rx="3.8" fill="#DE2A61"/>
<rect x="1869.1" y="177.2" width="7.6" height="699.7" rx="3.8" fill="#DE2A5E"/>
<rect x="1882.2" y="157.0" width="7.6" height="740.1" rx="3.8" fill="#DE2A5B"/>
<rect x="1895.4" y="177.5" width="7.6" height="699.1" rx="3.8" fill="#DF2A58"/>
<rect x="1908.6" y="275.1" width="7.6" height="503.8" rx="3.8" fill="#DF2A55"/>
<rect x="1921.8" y="160.5" width="7.6" height="733.0" rx="3.8" fill="#DF2B51"/>
<rect x="1934.9" y="197.7" width="7.6" height="658.6" rx="3.8" fill="#DF2B4E"/>
<rect x="1948.1" y="215.9" width="7.6" height="622.2" rx="3.8" fill="#DF2B4B"/>
<rect x="1961.3" y="286.5" width="7.6" height="480.9" rx="3.8" fill="#E02B48"/>
<rect x="1974.5" y="149.6" width="7.6" height="754.7" rx="3.8" fill="#E02B45"/>
<rect x="1987.7" y="199.4" width="7.6" height="655.1" rx="3.8" fill="#E02B42"/>
<rect x="2000.8" y="269.3" width="7.6" height="515.3" rx="3.8" fill="#E02C3F"/>
<rect x="2014.0" y="261.5" width="7.6" height="531.0" rx="3.8" fill="#E02C3C"/>
<rect x="2027.2" y="285.9" width="7.6" height="482.1" rx="3.8" fill="#E02C39"/>
<rect x="2040.4" y="293.3" width="7.6" height="467.5" rx="3.8" fill="#E12C36"/>
<rect x="2053.6" y="134.7" width="7.6" height="784.7" rx="3.8" fill="#E12C33"/>
<rect x="2066.7" y="246.6" width="7.6" height="560.8" rx="3.8" fill="#E12C30"/>
<rect x="2079.9" y="274.4" width="7.6" height="505.2" rx="3.8" fill="#E12D2D"/>
<rect x="2093.1" y="346.1" width="7.6" height="361.8" rx="3.8" fill="#E1302D"/>
<rect x="2106.3" y="195.7" width="7.6" height="662.5" rx="3.8" fill="#E2332D"/>
<rect x="2119.4" y="164.9" width="7.6" height="724.2" rx="3.8" fill="#E2372D"/>
<rect x="2132.6" y="311.4" width="7.6" height="431.3" rx="3.8" fill="#E23A2D"/>
<rect x="2145.8" y="269.3" width="7.6" height="515.4" rx="3.8" fill="#E23D2E"/>
<rect x="2159.0" y="292.8" width="7.6" height="468.3" rx="3.8" fill="#E2412E"/>
<rect x="2172.2" y="358.8" width="7.6" height="336.4" rx="3.8" fill="#E3442E"/>
<rect x="2185.3" y="296.5" width="7.6" height="460.9" rx="3.8" fill="#E3482E"/>
<rect x="2198.5" y="216.4" width="7.6" height="621.1" rx="3.8" fill="#E34B2E"/>
<rect x="2211.7" y="307.3" width="7.6" height="439.3" rx="3.8" fill="#E34F2E"/>
<rect x="2224.9" y="230.7" width="7.6" height="592.7" rx="3.8" fill="#E3522F"/>
<rect x="2238.1" y="328.8" width="7.6" height="396.4" rx="3.8" fill="#E3552F"/>
<rect x="2251.2" y="313.3" width="7.6" height="427.3" rx="3.8" fill="#E4592F"/>
<rect x="2264.4" y="260.2" width="7.6" height="533.7" rx="3.8" fill="#E45C2F"/>
<rect x="2277.6" y="310.1" width="7.6" height="433.9" rx="3.8" fill="#E4602F"/>
<rect x="74" y="525" width="2214" height="4" fill="#14161A" opacity="0.28"/>
<path d="M553.1 1046.6Q549.0 1046.6 546.3 1044.9Q543.6 1043.2 542.2 1040.1Q540.9 1037.1 540.6 1033.0L544.7 1031.7Q545.0 1034.8 545.8 1037.4Q546.6 1039.9 548.4 1041.3Q550.1 1042.8 553.2 1042.8Q556.5 1042.8 558.4 1041.0Q560.2 1039.3 560.2 1035.5Q560.2 1032.2 558.6 1029.8Q556.9 1027.3 554.1 1024.7L545.2 1016.2Q542.9 1013.9 541.7 1011.4Q540.6 1009.0 540.6 1006.1Q540.6 1000.9 543.7 998.1Q546.8 995.3 552.0 995.3Q554.6 995.3 556.8 996.0Q558.9 996.6 560.4 998.2Q562.0 999.7 562.8 1002.1Q563.7 1004.5 564.0 1008.0L560.0 1009.0Q559.7 1005.9 559.0 1003.6Q558.2 1001.4 556.5 1000.2Q554.9 999.0 552.0 999.0Q548.9 999.0 546.9 1000.6Q544.9 1002.2 544.9 1005.6Q544.9 1007.7 545.7 1009.4Q546.5 1011.0 548.4 1013.0L557.3 1021.3Q560.3 1024.1 562.5 1027.5Q564.6 1030.9 564.6 1035.2Q564.6 1039.0 563.2 1041.5Q561.7 1044.1 559.1 1045.3Q556.5 1046.6 553.1 1046.6ZM609.6 1046.0V999.4H600.2V995.8H623.6V999.4H614.4V1046.0ZM661.5 1046.0V995.8H679.7V999.4H666.3V1018.3H677.2V1021.8H666.3V1042.5H679.8V1046.0ZM718.8 1046.0V995.8H730.1Q734.8 995.8 737.5 997.3Q740.2 998.8 741.4 1001.7Q742.6 1004.6 742.6 1008.6Q742.6 1011.3 741.9 1013.8Q741.3 1016.3 739.8 1018.0Q738.4 1019.8 735.6 1020.3L743.3 1046.0H738.7L731.3 1021.3H723.5V1046.0ZM723.5 1017.9H729.9Q733.0 1017.9 734.8 1016.8Q736.5 1015.7 737.2 1013.7Q738.0 1011.7 738.0 1008.6Q738.0 1003.9 736.4 1001.6Q734.8 999.3 730.0 999.3H723.5ZM782.9 1046.0V995.8H801.1V999.4H787.7V1018.3H798.6V1021.8H787.7V1042.5H801.2V1046.0ZM852.1 1046.6Q847.0 1046.6 844.2 1044.7Q841.4 1042.7 840.2 1039.2Q839.1 1035.7 839.1 1031.2V1010.4Q839.1 1005.8 840.3 1002.4Q841.5 999.0 844.3 997.1Q847.2 995.3 852.1 995.3Q856.9 995.3 859.7 997.1Q862.5 999.0 863.7 1002.4Q864.9 1005.8 864.9 1010.4V1031.2Q864.9 1035.8 863.7 1039.2Q862.6 1042.7 859.8 1044.6Q857.0 1046.6 852.1 1046.6ZM852.1 1042.8Q855.3 1042.8 857.1 1041.5Q858.8 1040.2 859.5 1037.8Q860.1 1035.4 860.1 1032.2V1009.5Q860.1 1006.3 859.5 1004.0Q858.8 1001.6 857.1 1000.3Q855.3 999.1 852.1 999.1Q848.7 999.1 846.9 1000.3Q845.2 1001.6 844.5 1004.0Q843.9 1006.3 843.9 1009.5V1032.2Q843.9 1035.4 844.5 1037.8Q845.2 1040.2 846.9 1041.5Q848.7 1042.8 852.1 1042.8ZM949.9 1025.4V1019.9H954.5V1025.4ZM1053.4 1046.0V1031.3H1038.3V1026.7L1052.6 995.8H1057.9V1027.2H1063.7V1031.3H1057.9V1046.0ZM1042.9 1027.2H1053.4V1001.8ZM1113.5 1046.6Q1109.2 1046.6 1106.6 1044.9Q1104.0 1043.1 1102.8 1039.9Q1101.7 1036.8 1101.7 1032.5Q1101.7 1029.3 1102.3 1027.1Q1103.0 1024.9 1104.0 1023.4Q1105.1 1022.0 1106.4 1021.1Q1107.7 1020.3 1108.9 1019.6Q1105.9 1018.4 1104.0 1015.5Q1102.2 1012.6 1102.2 1007.9Q1102.2 1004.2 1103.3 1001.4Q1104.4 998.5 1106.9 996.9Q1109.4 995.3 1113.5 995.3Q1117.6 995.3 1120.1 996.9Q1122.6 998.6 1123.6 1001.4Q1124.7 1004.3 1124.7 1008.0Q1124.7 1012.8 1122.9 1015.6Q1121.1 1018.3 1118.0 1019.6Q1119.3 1020.3 1120.6 1021.1Q1121.9 1022.0 1122.9 1023.4Q1123.9 1024.9 1124.6 1027.1Q1125.3 1029.3 1125.3 1032.5Q1125.3 1036.8 1124.1 1039.9Q1123.0 1043.1 1120.4 1044.9Q1117.8 1046.6 1113.5 1046.6ZM1113.5 1043.0Q1116.0 1043.0 1117.6 1041.8Q1119.2 1040.7 1120.0 1038.4Q1120.8 1036.1 1120.8 1032.5Q1120.8 1029.4 1120.1 1027.1Q1119.4 1024.8 1117.8 1023.4Q1116.2 1021.9 1113.5 1021.8Q1110.8 1021.9 1109.1 1023.4Q1107.5 1024.8 1106.8 1027.1Q1106.1 1029.4 1106.1 1032.5Q1106.1 1036.1 1106.9 1038.4Q1107.7 1040.7 1109.4 1041.8Q1111.0 1043.0 1113.5 1043.0ZM1113.5 1017.6Q1116.1 1017.5 1117.6 1016.2Q1119.0 1014.9 1119.7 1012.7Q1120.3 1010.5 1120.3 1007.8Q1120.3 1003.5 1118.7 1001.2Q1117.0 998.9 1113.5 998.9Q1109.9 998.9 1108.3 1001.2Q1106.6 1003.5 1106.6 1007.8Q1106.6 1010.5 1107.3 1012.7Q1107.9 1014.9 1109.4 1016.2Q1110.9 1017.5 1113.5 1017.6ZM1210.1 1046.0V995.8H1214.6V1027.6L1226.6 1010.2H1231.4L1222.3 1024.0L1231.0 1046.0H1226.4L1218.9 1026.5L1214.6 1032.4V1046.0ZM1268.3 1046.0V995.8H1273.0V1018.0H1288.8V995.8H1293.5V1046.0H1288.8V1021.6H1273.0V1046.0ZM1332.4 1046.0V1042.8L1344.6 1013.6H1333.7V1010.2H1349.4V1012.9L1337.2 1042.5H1349.2V1046.0ZM1432.6 1025.4V1019.9H1437.3V1025.4ZM1521.0 1046.0V1042.7L1534.5 1021.9Q1536.0 1019.6 1537.3 1017.5Q1538.6 1015.4 1539.4 1013.0Q1540.3 1010.7 1540.3 1007.7Q1540.3 1003.7 1538.6 1001.4Q1537.0 999.1 1533.6 999.1Q1530.5 999.1 1528.9 1000.4Q1527.2 1001.8 1526.5 1004.2Q1525.9 1006.6 1525.9 1009.5V1010.7H1521.3V1009.4Q1521.3 1004.8 1522.6 1001.6Q1523.8 998.5 1526.5 996.9Q1529.1 995.3 1533.4 995.3Q1539.1 995.3 1541.9 998.7Q1544.8 1002.0 1544.8 1008.1Q1544.8 1011.1 1543.9 1013.6Q1543.0 1016.2 1541.7 1018.5Q1540.3 1020.8 1538.8 1023.2L1526.3 1042.2H1543.7V1046.0ZM1598.7 1046.0V1031.3H1583.6V1026.7L1597.9 995.8H1603.2V1027.2H1609.0V1031.3H1603.2V1046.0ZM1588.2 1027.2H1598.7V1001.8ZM1692.8 1046.0V995.8H1703.6Q1707.0 995.8 1709.4 996.6Q1711.8 997.5 1713.2 999.2Q1714.6 1000.9 1715.3 1003.2Q1715.9 1005.5 1715.9 1008.3Q1715.9 1010.7 1715.3 1013.0Q1714.7 1015.2 1713.4 1016.8Q1712.0 1018.4 1709.5 1018.9Q1712.4 1019.7 1714.1 1021.7Q1715.8 1023.6 1716.4 1026.2Q1717.1 1028.8 1717.1 1031.5Q1717.1 1034.5 1716.6 1037.1Q1716.0 1039.7 1714.7 1041.7Q1713.4 1043.7 1711.1 1044.9Q1708.8 1046.0 1705.2 1046.0ZM1697.6 1042.5H1704.3Q1709.2 1042.5 1710.9 1039.8Q1712.5 1037.1 1712.5 1031.5Q1712.5 1028.5 1711.8 1026.1Q1711.0 1023.7 1709.2 1022.4Q1707.5 1021.1 1704.4 1021.1H1697.6ZM1697.6 1017.4H1704.4Q1707.3 1017.4 1708.8 1016.3Q1710.4 1015.1 1711.0 1013.1Q1711.6 1011.1 1711.6 1008.3Q1711.6 1005.3 1710.8 1003.3Q1710.0 1001.3 1707.9 1000.4Q1705.9 999.4 1702.0 999.4H1697.6ZM1756.6 1046.0V995.8H1761.3V1046.0ZM1808.9 1046.0V999.4H1799.4V995.8H1822.9V999.4H1813.6V1046.0Z" fill="#14161A" opacity="0.65"/>
</svg>